# File created by Blade
# Date/Time:  Thu Jan 22 18:06:37 2015
#---------------------------------------------------------
:version 1.10
:name HOM
:units
  mass 1.0
  length 1.000000
  angle deg
:documentation
     Acclaim Skeleton File
:root
   axis xyz
   order TX TY TZ RX RY RZ
   position 0.000000 0.000000 0.000000
   orientation 0 0 0
:bonedata
   begin
      id 1
      name RightUpLeg_dum
      direction -1.000000 0.000000 0.000000
      length 4.478084
      axis 0.0 0.0 0.0 xyz
   end
   begin
      id 2
      name LeftUpLeg_dum
      direction 1.000000 0.000000 0.000000
      length 4.478084
      axis 0.0 0.0 0.0 xyz
   end
   begin
      id 3
      name Spine_dum
      direction 0.000000 1.000000 0.000000
      length 6.068208
      axis 0.0 0.0 0.0 xyz
   end
   begin
      id 4
      name RightUpLeg
      direction 0.000000 -1.000000 0.000000
      length 16.405774
      axis 0.0 0.0 0.0 xyz
      dof rx ry rz
   end
   begin
      id 5
      name RightLeg
      direction 0.000000 -1.000000 0.000000
      length 14.644143
      axis 0.0 0.0 0.0 xyz
      dof rx ry rz
   end
   begin
      id 6
      name RightFoot
      direction 0.000000 -0.258819 0.965926
      length 5.806150
      axis 15.0 0.0 0.0 xyz
      dof rx ry rz
   end
   begin
      id 7
      name RightToeBase
      direction 0.000000 0.000000 1.000000
      length 2.952750
      axis 0.0 0.0 0.0 xyz
      dof rx ry rz
   end
   begin
      id 8
      name LeftUpLeg
      direction 0.000000 -1.000000 0.000000
      length 16.405774
      axis 0.0 0.0 0.0 xyz
      dof rx ry rz
   end
   begin
      id 9
      name LeftLeg
      direction 0.000000 -1.000000 0.000000
      length 14.644143
      axis 0.0 0.0 0.0 xyz
      dof rx ry rz
   end
   begin
      id 10
      name LeftFoot
      direction 0.000000 -0.258819 0.965926
      length 5.806150
      axis 15.0 0.0 0.0 xyz
      dof rx ry rz
   end
   begin
      id 11
      name LeftToeBase
      direction 0.000000 0.000000 1.000000
      length 2.952750
      axis 0.0 0.0 0.0 xyz
      dof rx ry rz
   end
   begin
      id 12
      name Spine
      direction 0.000000 1.000000 0.000000
      length 0.000000
      axis 0.0 0.0 0.0 xyz
      dof rx ry rz
   end
   begin
      id 13
      name Spine_dum1
      direction 0.000000 1.000000 0.000000
      length 10.013923
      axis 0.0 0.0 0.0 xyz
   end
   begin
      id 14
      name Spine_dum2
      direction 0.000000 1.000000 0.000000
      length 10.013923
      axis 0.0 0.0 0.0 xyz
   end
   begin
      id 15
      name Spine_dum3
      direction 0.000000 1.000000 0.000000
      length 15.777476
      axis 0.0 0.0 0.0 xyz
   end
   begin
      id 16
      name RightShoulder
      direction -1.000000 0.000000 0.000000
      length 7.190220
      axis 0.0 0.0 90.0 xyz
      dof rx ry rz
   end
   begin
      id 17
      name RightArm
      direction -1.000000 0.000000 0.000000
      length 10.177469
      axis 0.0 0.0 90.0 xyz
      dof rx ry rz
   end
   begin
      id 18
      name RightForeArm
      direction -1.000000 0.000000 0.000000
      length 8.392114
      axis 0.0 0.0 90.0 xyz
      dof ry rz rx
   end
   begin
      id 19
      name RightHand
      direction -1.000000 0.000000 0.000000
      length 0.000000
      axis 0.0 0.0 90.0 xyz
      dof rx ry rz
   end
   begin
      id 20
      name RightHand_dum1
      direction -1.000000 0.000000 0.000000
      length 3.937000
      axis 0.0 0.0 90.0 xyz
   end
   begin
      id 21
      name RightHand_dum2
      direction 0.000000 0.000000 0.000000
      length 0.000000
      axis 0.0 0.0 90.0 xyz
   end
   begin
      id 22
      name RightHandThumb1
      direction 0.000000 0.000000 1.000000
      length 3.937000
      axis 0.0 0.0 90.0 xyz
      dof rx rz ry
   end
   begin
      id 23
      name LeftShoulder
      direction 1.000000 0.000000 0.000000
      length 7.190220
      axis 0.0 0.0 -90.0 xyz
      dof rx ry rz
   end
   begin
      id 24
      name LeftArm
      direction 1.000000 0.000000 0.000000
      length 10.177469
      axis 0.0 0.0 -90.0 xyz
      dof rx ry rz
   end
   begin
      id 25
      name LeftForeArm
      direction 1.000000 0.000000 0.000000
      length 8.392114
      axis 0.0 0.0 -90.0 xyz
      dof ry rz rx
   end
   begin
      id 26
      name LeftHand
      direction 1.000000 0.000000 0.000000
      length 0.000000
      axis 0.0 0.0 -90.0 xyz
      dof rx ry rz
   end
   begin
      id 27
      name LeftHand_dum1
      direction 1.000000 0.000000 0.000000
      length 3.937000
      axis 0.0 0.0 -90.0 xyz
   end
   begin
      id 28
      name LeftHand_dum2
      direction 0.000000 0.000000 0.000000
      length 0.000000
      axis 0.0 0.0 -90.0 xyz
   end
   begin
      id 29
      name LeftHandThumb1
      direction 0.000000 0.000000 1.000000
      length 3.937000
      axis 0.0 0.0 -90.0 xyz
      dof rx rz ry
   end
   begin
      id 30
      name Head
      direction 0.000000 1.000000 0.000000
      length 4.527550
      axis 0.0 0.0 0.0 xyz
      dof rx ry rz
   end
:hierarchy
   begin
      root RightUpLeg_dum LeftUpLeg_dum Spine_dum
      RightUpLeg_dum RightUpLeg
      LeftUpLeg_dum LeftUpLeg
      Spine_dum Spine
      RightUpLeg RightLeg
      RightLeg RightFoot
      RightFoot RightToeBase
      LeftUpLeg LeftLeg
      LeftLeg LeftFoot
      LeftFoot LeftToeBase
      Spine Spine_dum1 Spine_dum2 Spine_dum3
      Spine_dum1 RightShoulder
      Spine_dum2 LeftShoulder
      Spine_dum3 Head
      RightShoulder RightArm
      RightArm RightForeArm
      RightForeArm RightHand
      RightHand RightHand_dum1 RightHand_dum2
      RightHand_dum2 RightHandThumb1
      LeftShoulder LeftArm
      LeftArm LeftForeArm
      LeftForeArm LeftHand
      LeftHand LeftHand_dum1 LeftHand_dum2
      LeftHand_dum2 LeftHandThumb1
   end

# File created by Blade
# Date/Time:  Thu Jan 22 18:06:27 2015
# Frame Rate: 120.000 fps
#------------------------------------------------------
:FULLY-SPECIFIED
:DEGREES
768
root 1.190519 32.976741 -2.495631 9.552784 32.377912 3.293270
RightUpLeg -31.702589 32.032364 -15.397359
RightLeg 85.369808 -0.000000 -0.000000
RightFoot -10.943065 -23.770649 -13.601705
RightToeBase -15.645847 -0.000000 0.000000
LeftUpLeg -2.544083 -18.251278 -8.280073
LeftLeg -0.320429 -0.000000 0.000000
LeftFoot -4.196754 -12.114033 -3.410957
LeftToeBase 10.429756 -0.000000 -0.000000
Spine -10.544489 -14.931154 -1.845801
RightShoulder -21.145211 -21.196327 -21.761358
RightArm 13.073787 28.499016 49.761734
RightForeArm -9.008745 -0.000000 13.857624
RightHand 6.072402 -0.000000 11.829418
RightHandThumb1 -24.326973 -0.000000 -32.862282
LeftShoulder -18.903623 -0.258529 25.466515
LeftArm 36.495211 -20.794439 -61.517779
LeftForeArm 3.333905 -0.000000 42.782512
LeftHand 1.353785 -0.000000 36.450674
LeftHandThumb1 -26.253704 0.000000 33.147579
Head 19.148038 -2.372515 -0.828854
769
root 1.194052 32.975143 -2.490646 9.550941 32.401213 3.305206
RightUpLeg -31.676181 32.030611 -15.391834
RightLeg 85.315421 -0.000000 -0.000000
RightFoot -10.972635 -23.797649 -13.571734
RightToeBase -15.615312 -0.000000 0.000000
LeftUpLeg -2.520664 -18.278332 -8.296938
LeftLeg -0.327212 -0.000000 0.000000
LeftFoot -4.198298 -12.084740 -3.400623
LeftToeBase 10.315831 -0.000000 -0.000000
Spine -10.560394 -14.899047 -1.883304
RightShoulder -21.127279 -21.082123 -21.823994
RightArm 12.878049 28.486237 49.631760
RightForeArm -8.967546 -0.000000 13.928418
RightHand 6.105281 -0.000000 11.931544
RightHandThumb1 -24.326973 -0.000000 -32.862282
LeftShoulder -18.896644 -0.270531 25.479432
LeftArm 36.505362 -20.765406 -61.516851
LeftForeArm 3.572043 -0.000000 42.735577
LeftHand 1.172930 -0.000000 36.184505
LeftHandThumb1 -26.253704 0.000000 33.147579
Head 19.158969 -2.255446 -0.829620
770
root 1.197381 32.973341 -2.486580 9.542395 32.417352 3.306030
RightUpLeg -31.653795 32.044300 -15.385547
RightLeg 85.245205 -0.000000 -0.000000
RightFoot -10.989978 -23.854493 -13.610423
RightToeBase -15.567017 -0.000000 0.000000
LeftUpLeg -2.501685 -18.278027 -8.304764
LeftLeg -0.324990 -0.000000 0.000000
LeftFoot -4.221902 -12.086866 -3.384245
LeftToeBase 10.365131 -0.000000 -0.000000
Spine -10.571286 -14.862910 -1.900091
RightShoulder -21.134079 -21.075482 -21.847671
RightArm 12.820974 28.585315 49.576007
RightForeArm -9.055768 -0.000000 13.959750
RightHand 6.210436 -0.000000 11.942626
RightHandThumb1 -24.326973 -0.000000 -32.862282
LeftShoulder -18.905768 -0.252145 25.459797
LeftArm 36.552630 -20.776105 -61.522777
LeftForeArm 3.631362 -0.000000 42.727325
LeftHand 1.133202 -0.000000 36.070383
LeftHandThumb1 -26.253704 0.000000 33.147579
Head 19.153905 -2.142002 -0.850349
771
root 1.201142 32.972189 -2.483602 9.547514 32.440439 3.322519
RightUpLeg -31.630061 32.037755 -15.388098
RightLeg 85.169804 -0.000000 -0.000000
RightFoot -10.970086 -23.906038 -13.754411
RightToeBase -15.455181 -0.000000 0.000000
LeftUpLeg -2.493440 -18.274497 -8.323355
LeftLeg -0.315928 -0.000000 0.000000
LeftFoot -4.225884 -12.105889 -3.380634
LeftToeBase 10.377580 -0.000000 -0.000000
Spine -10.588767 -14.837346 -1.927476
RightShoulder -21.123851 -21.051896 -21.863129
RightArm 12.746065 28.701045 49.498187
RightForeArm -9.194251 -0.000000 13.988390
RightHand 6.059391 -0.000000 11.755494
RightHandThumb1 -24.326973 -0.000000 -32.862282
LeftShoulder -18.918087 -0.237881 25.442421
LeftArm 36.598433 -20.760647 -61.505458
LeftForeArm 3.638357 -0.000000 42.686398
LeftHand 1.131099 -0.000000 36.095889
LeftHandThumb1 -26.253704 0.000000 33.147579
Head 19.147938 -2.045145 -0.867337
772
root 1.204046 32.970973 -2.481986 9.568576 32.470920 3.339738
RightUpLeg -31.629196 32.017306 -15.401552
RightLeg 85.105197 -0.000000 -0.000000
RightFoot -10.990466 -23.929782 -13.726578
RightToeBase -15.432815 -0.000000 0.000000
LeftUpLeg -2.512231 -18.275224 -8.333874
LeftLeg -0.290477 -0.000000 0.000000
LeftFoot -4.233993 -12.135425 -3.375972
LeftToeBase 10.341204 -0.000000 -0.000000
Spine -10.616010 -14.836736 -1.941069
RightShoulder -21.145397 -21.101767 -21.872415
RightArm 12.781201 28.711677 49.459459
RightForeArm -9.129059 -0.000000 14.025011
RightHand 6.115686 -0.000000 11.738083
RightHandThumb1 -24.326973 -0.000000 -32.862282
LeftShoulder -18.931429 -0.270655 25.452057
LeftArm 36.544727 -20.796160 -61.517253
LeftForeArm 3.477073 -0.000000 42.744992
LeftHand 1.046173 -0.000000 35.976612
LeftHandThumb1 -26.253704 0.000000 33.147579
Head 19.115390 -1.944474 -0.880962
